# xmcd CD database file
#
# Track frame offsets:
#	150
#	21525
#	41033
#	60628
#	79450
#	101418
#	118010
#	139750
#	164885
#	188708
#	207375
#	223723
#
# Disc length: 3275 seconds
#
# Revision: 4
# Processed by: cddbd v1.5PL3 Copyright (c) Steve Scherf et al.
# Submitted via: CDex 1.50
#
DISCID=ba0cc90c
DTITLE=As Soon As Possible - Cinderella Express
DYEAR=1992
DGENRE=Pop
TTITLE0=Lonely Room
TTITLE1=Cinderella Express
TTITLE2=Anniversary
TTITLE3=Chuo Freeway
TTITLE4=No Side(Game's Over)
TTITLE5=Those Were The Days(Nothing Stays The Same)
TTITLE6=My Baby Santa Claus
TTITLE7=Dandelion
TTITLE8=Rainy Station
TTITLE9=Your Don't Have To Worry
TTITLE10=Vapor Trail
TTITLE11=Graduation Photograph
EXTD=YEAR: 1992
EXTT0=
EXTT1=
EXTT2=
EXTT3=
EXTT4=
EXTT5=
EXTT6=
EXTT7=
EXTT8=
EXTT9=
EXTT10=
EXTT11=
PLAYORDER=
